# xmcd
#
# Track frame offsets: 
#        150
#        9003
#        20715
#        33293
#        44420
#        54893
#        63734
#        74430
#        84326
#        95053
#        106148
#        114674
#        126432
#        137937
#        148247
#        156394
#        168545
#        178740
#        189319
#        199169
#
# Disc length: 2825 seconds
#
# Revision: 1
# Processed by: cddbd v1.5.2PL0 Copyright (c) Steve Scherf et al.
# Submitted via: ExactAudioCopyFreeDBPlugin 1.0
#
DISCID=240b0714
DTITLE=LaVern Baker - It's So Fine:  The Complete Singles As and Bs, 195
DTITLE=3-1959
DYEAR=2010
DGENRE=Rhythm and Blues
TTITLE0=Love Me Right
TTITLE1=Humpty Dumpty Heart
TTITLE2=Miracles
TTITLE3=St. Louis Blues
TTITLE4=Substitute
TTITLE5=Learning to Love
TTITLE6=Harbor Lights
TTITLE7=Whipper Snapper
TTITLE8=It's So Fine
TTITLE9=Why Baby Why
TTITLE10=Dix-A-Billy
TTITLE11=I Cried a Tear
TTITLE12=I Waited Too Long
TTITLE13=You're Teasing Me
TTITLE14=So High So Low
TTITLE15=If You Love Me
TTITLE16=For Love of You
TTITLE17=Tiny Tim
TTITLE18=Manana
TTITLE19=Shake a Hand
EXTD=
EXTT0=
EXTT1=
EXTT2=
EXTT3=
EXTT4=
EXTT5=
EXTT6=
EXTT7=
EXTT8=
EXTT9=
EXTT10=
EXTT11=
EXTT12=
EXTT13=
EXTT14=
EXTT15=
EXTT16=
EXTT17=
EXTT18=
EXTT19=
PLAYORDER=
